<?xml version="1.0" encoding="UTF-8"?>
<svg id="_レイヤー_2" data-name="レイヤー 2" xmlns="http://www.w3.org/2000/svg" viewBox="0 0 149.73 149.93">
  <defs>
    <style>
      .cls-1 {
        fill: none;
        stroke: #231815;
        stroke-miterlimit: 10;
        stroke-width: 2px;
      }
    </style>
  </defs>
  <g id="_レイヤー_1-2" data-name="レイヤー 1">
    <g>
      <path class="cls-1" d="M64.52,47.27l1.31,6.02c3.79-.24,15.69-.94,19.02-.82,.44-1.74,.32-3.61,.37-4.74,.02-.49-.62-1.17-1.09-1.25-.72-.13-13.66,.67-14.86,.67-1.96,0-4.75,.12-4.75,.12Zm-16.71,32.58c-.4-.39-2.75,.69-3.94,.37-1.06-.29-4.03-1.64-4.78-2.94-.11-.19,.61-2.03,.82-2.05h11.88l18.67-1.55v-6.47s-17,1.54-18.61,1.15c-1.12-.27-3.16-2.38-4.31-3.64-.32-.35-.06-.92,.4-.91l6.29,.23,16.23-.71v-6.67l-4.63,.36s-.31,2.78-1.31,2.9l-3.19,1.35c-.45,0-2.63-1.68-3.52-3.17-.28-.46-.95-2.16-.85-4.82,0-3.74-3-6.58-3.21-10.19-.02-.44,.35-.8,.78-.73,3.7,.59,6.75,.99,9.18,.99l22.02-1,1.84-1.5c1.11-.66,2.23-.81,3.34-.44l5.34,2.18,3.93-4.05c.44-.46,.11-1.24-.52-1.2l-48.6,2.61c.33,2.45-.33,4.8-2,7.05-.67,.96-1.67,1.71-3.01,2.24-1.34,.54-2.73,.73-4.18,.56-1.56-.17-2.87-.69-3.93-1.56-1.06-.87-1.64-1.91-1.75-3.12,.11-1.95,1.17-3.49,3.17-4.61,4.34-2.25,6.96-5.3,7.85-9.17,1.56,1.71,2.62,3.43,3.17,5.18l5.43-1.47c-1.67-1.21-2.39-2.64-2.17-4.3,.44-1.75,.22-3.42-.67-5.02-.89-1.6-2.28-2.92-4.18-3.96,3.56-.04,6.82,.59,9.77,1.9,2.95,1.31,5.21,3.11,6.76,5.39,.78,1,1.03,2.06,.75,3.18-.28,1.12-.97,2.06-2.09,2.81l7.32-.19c0-1.68-.48-10.38-.48-12.05s-3.84-10.29-2.51-11.57c3.63-1.92,14.15,8.03,14.04,8.78,.11,1.1-1.17,4.53-1.18,5.73s-.41,9.4-.41,9.4l3.76-.08c1.62-2.5,5.76-9.57,6.12-10.39,.77-1.76,.85-6.52,1.52-6.58,1.62-.16,8.72,7.41,8.84,8.52s-1.96,2.12-2.68,2.53c-2.72,1.54-5.63,3.51-8.3,5.92l9.34-.8s3.87-.39,7.23-1.84c1.36-.59,8.32,4.85,8.32,4.85,.45,.33,.61,.73,.5,1.18-.11,.5-.5,.79-1.17,.87l-5.42,.82c-3.56,.96-5.5,2.63-8.95,3.96l.67,.31c.33,.25,.5,.62,.5,1.12-.11,.42-.39,.73-.84,.94l-2.34,1.06-3.99,8.57s-.56,1.01-1.67,1.68l-4.86,2.4c-.67,.12-1.28,0-1.84-.37-.67-.33-1-.79-1-1.37v-1.95s-3.7,.21-3.7,.21v6.74s6.16,.06,9.69-.47c.99-.15,5.67-1.82,5.67-1.82,.44-.42,1.06-.62,1.84-.62s1.45,.19,2,.56l5.25,2.33c.44,.42,.49,2.05,.22,2.57-.28,.52-2.78,1.04-3.56,1.12l-21.1,.17-.03,3.75-.68,1.94h.71s13.33-.34,15.78-1.12,6.88-.6,7.66-.6,1.39,.19,1.84,.56l6.68,5.61c.33,.5-1.5,2.02-2.07,2.02-4.39-.02-7.2-.49-8.61-.56-3.46-.17-13.48-2.09-43.77-.44l-.46,.5,.08,5.08h1.25c.05-.46,.31-.96,.75-1.5,.17-.42,.56-.69,1.17-.81,.56-.12,1.09-.06,1.59,.19l7.37,5.3-.52,2.79-2.43,.33c-2.23,3.24-6.43,6.48-8.43,9.29,4.06,.42,5.62,1.85,8.29,4.3v-1.62l13.16,2.27,20.38-.65,2.71-1.44c.67-.5,1.47-.58,2.42-.25l8.01,3.95c.39,.21,.61,.46,.67,.75,.05,.29-.06,.58-.33,.87l-1.84,1.5-3.5,17.93c0,.62-1.04,2.41-1.32,2.76-1.14,1.39-3.71,4.07-5.32,3.33s-2.87-4.81-2.87-4.81h-19.01v.75c0,.79-.6,.96-1.94,1.35l-6.13,.63c-1.28-.12-1.25-4.63-1.53-6.48s-2.5-13.6-2.5-13.6c-2.12,1.04-3.78,2.74-5.95,1.77-2.17-.98-2.89-4.13-2.73-6,.33-2-.9-5.67-1.42-5.67,0,0-.23,25.71,.13,28.97s-5.97,5.94-5.97,5.94c-.78,0-5.01-6.26-5.25-7.81s.89-3.31,1.41-7.35-.17-14.53-.17-14.53c-3.79,2.04-11.78,5.61-11.78,5.61l-5.88-.65c2.97-1.69,13.7-9.58,17.16-12.54,2.78-2.95,5.73-5.61,9.44-11.35,0,0-17.12,5.03-19.8,4.5s-6.07-5.06-5.66-6.12c.89-.71,6.49,1.35,12.77-.42,.8-.23,5.61-1.19,5.61-1.19l-3-3.82s1.21-.23,.81-.62Zm22.33,2.19l11.61,1.68,15.75-.81,3.04-1.49c.17-.21,.47-.35,.92-.44,.45,0,.81,.06,1.09,.19l7.85,3.87c.33,.17,.53,.4,.58,.69,0,.33-.11,.6-.33,.81l-1.09,1-1.46,10.97c0,.5-1.42,1.34-2.09,1.46l-4.27,1.36c-.82,.26-1.7,.15-2.43-.3l-2.18-1.83-14.8,.44v1c0,.83-.56,1.29-1.67,1.37l-6.21,.31c-.67,.08-1.35-.13-1.45-.81-.21-1.5,.2-4.39,0-4.55l-2.86-14.91Zm8.13,26.64l.86,5.85,6.4-.58-.13-5.52c-1.24-.05-6.1,.24-7.12,.24Zm1.36,9.64l.57,6.18,5.44-.26-.14-6.42-5.87,.49Zm1.75-30.71l.96,8.64,14.51-.55,.71-8.52-16.17,.42Zm12.1,20.78v5.42s2.7,0,4.06-.79c.15-.08,.31-.14,.48-.13,.92,.09,1.51,.63,1.51,.63l.31-5.38-6.36,.24Zm0,9.34v6.52s1.78-.03,3.68-.81c.1-.04,.21-.07,.31-.05,.68,.07,1.31,.52,1.31,.52l.47-6.37-5.76,.19Z"/>
      <ellipse class="cls-1" cx="74.86" cy="74.97" rx="73.86" ry="73.97"/>
      <path class="cls-1" d="M136.05,44.75c-10.37,6.06-17.34,17.33-17.34,30.22,0,12.89,6.97,24.15,17.34,30.22h0c-11.14,22.57-34.36,38.09-61.2,38.09s-49.95-15.45-61.11-37.93h0c10.53-6.02,17.63-17.37,17.63-30.39s-7.1-24.36-17.63-30.39h0C24.91,22.1,48.08,6.65,74.85,6.65s50.06,15.52,61.2,38.09h0Z"/>
      <path class="cls-1" d="M13.72,44.64C24.84,22.02,48.03,6.46,74.82,6.46"/>
      <path class="cls-1" d="M135.99,105.16c-11.1,22.7-34.32,38.32-61.17,38.32s-49.94-15.53-61.08-38.12"/>
      <path class="cls-1" d="M137.77,98.75c-8.1-4.83-13.52-13.68-13.52-23.8s5.48-18.93,13.54-23.77h0c.72,1.7,1.37,3.44,1.94,5.22,1.87,5.84,2.88,12.08,2.88,18.55,0,8.45-1.72,16.5-4.83,23.8h0Z"/>
      <path class="cls-1" d="M11.67,49.57c8.38,5.18,13.92,14.57,13.92,25.39s-5.5,20.23-13.91,25.41h0c-3.21-7.8-4.98-16.39-4.98-25.41,0-9.01,1.77-17.59,4.97-25.39h0Z"/>
    </g>
  </g>
</svg>
